HIERARCHY
ROOT Hips
{
  OFFSET 1.73907 43.2358 0.0522707
  CHANNELS 6 Xposition Yposition Zposition Zrotation Xrotation Yrotation
  JOINT Bip01_Pelvis
  {
    OFFSET 0 0 0
    CHANNELS 6 Xposition Yposition Zposition Zrotation Xrotation Yrotation
    JOINT BN_Tail_01
    {
      OFFSET -2.28979 -2.39917 0
      CHANNELS 6 Xposition Yposition Zposition Zrotation Xrotation Yrotation
      JOINT BN_Tail_02
      {
        OFFSET 9.67405 0 0
        CHANNELS 6 Xposition Yposition Zposition Zrotation Xrotation Yrotation
        JOINT BN_Tail_03
        {
          OFFSET 10.5192 0 -1.14441e-005
          CHANNELS 6 Xposition Yposition Zposition Zrotation Xrotation Yrotation
          JOINT BN_Tail_04
          {
            OFFSET 8.16754 0 0
            CHANNELS 6 Xposition Yposition Zposition Zrotation Xrotation Yrotation
            End Site
            {
              OFFSET 0 0 0
            }
          }
        }
      }
    }
    JOINT Bip01_Spine
    {
      OFFSET 2.25317 -0.00479889 0
      CHANNELS 6 Xposition Yposition Zposition Zrotation Xrotation Yrotation
      JOINT Bip01_R_Thigh
      {
        OFFSET -2.32652 -0.461891 -2.25534
        CHANNELS 6 Xposition Yposition Zposition Zrotation Xrotation Yrotation
        JOINT Bip01_R_Calf
        {
          OFFSET 9.47902 0 0
          CHANNELS 6 Xposition Yposition Zposition Zrotation Xrotation Yrotation
          JOINT Bip01_R_Foot
          {
            OFFSET 8.42616 0 0
            CHANNELS 6 Xposition Yposition Zposition Zrotation Xrotation Yrotation
            JOINT Bip01_R_Toe1
            {
              OFFSET 1.4015 3.97627 -1.33795
              CHANNELS 6 Xposition Yposition Zposition Zrotation Xrotation Yrotation
              JOINT Bip01_R_Toe11
              {
                OFFSET 2.94553 0 0
                CHANNELS 6 Xposition Yposition Zposition Zrotation Xrotation Yrotation
                JOINT Bip01_R_Toe1Nub
                {
                  OFFSET 2.52656 0 0
                  CHANNELS 6 Xposition Yposition Zposition Zrotation Xrotation Yrotation
                  End Site
                  {
                    OFFSET 0 0 0
                  }
                }
              }
            }
            JOINT Bip01_R_Toe0
            {
              OFFSET 2.09729 6.93129 0.0277901
              CHANNELS 6 Xposition Yposition Zposition Zrotation Xrotation Yrotation
              JOINT Bip01_R_Toe01
              {
                OFFSET 3.0714 0 0
                CHANNELS 6 Xposition Yposition Zposition Zrotation Xrotation Yrotation
                JOINT Bip01_R_Toe0Nub
                {
                  OFFSET 3.37999 0 0
                  CHANNELS 6 Xposition Yposition Zposition Zrotation Xrotation Yrotation
                  End Site
                  {
                    OFFSET 0 0 0
                  }
                }
              }
            }
          }
        }
      }
      JOINT Bip01_L_Thigh
      {
        OFFSET -2.07803 -0.462101 2.48614
        CHANNELS 6 Xposition Yposition Zposition Zrotation Xrotation Yrotation
        JOINT Bip01_L_Calf
        {
          OFFSET 9.47902 0 0
          CHANNELS 6 Xposition Yposition Zposition Zrotation Xrotation Yrotation
          JOINT Bip01_L_Foot
          {
            OFFSET 8.42617 0 0
            CHANNELS 6 Xposition Yposition Zposition Zrotation Xrotation Yrotation
            JOINT Bip01_L_Toe1
            {
              OFFSET 1.40151 3.97627 1.33796
              CHANNELS 6 Xposition Yposition Zposition Zrotation Xrotation Yrotation
              JOINT Bip01_L_Toe11
              {
                OFFSET 2.94554 0 0
                CHANNELS 6 Xposition Yposition Zposition Zrotation Xrotation Yrotation
                JOINT Bip01_L_Toe1Nub
                {
                  OFFSET 2.52656 0 0
                  CHANNELS 6 Xposition Yposition Zposition Zrotation Xrotation Yrotation
                  End Site
                  {
                    OFFSET 0 0 0
                  }
                }
              }
            }
            JOINT Bip01_L_Toe0
            {
              OFFSET 2.0973 6.93128 -0.0277834
              CHANNELS 6 Xposition Yposition Zposition Zrotation Xrotation Yrotation
              JOINT Bip01_L_Toe01
              {
                OFFSET 3.07141 0 0
                CHANNELS 6 Xposition Yposition Zposition Zrotation Xrotation Yrotation
                JOINT Bip01_L_Toe0Nub
                {
                  OFFSET 3.37999 0 0
                  CHANNELS 6 Xposition Yposition Zposition Zrotation Xrotation Yrotation
                  End Site
                  {
                    OFFSET 0 0 0
                  }
                }
              }
            }
          }
        }
      }
      JOINT Bip01_Spine1
      {
        OFFSET 6.17162 -0.00484467 0
        CHANNELS 6 Xposition Yposition Zposition Zrotation Xrotation Yrotation
        JOINT BN_R_Clavicle_01
        {
          OFFSET 6.15897 -2.02444 -2.78435
          CHANNELS 6 Xposition Yposition Zposition Zrotation Xrotation Yrotation
          JOINT BN_R_UpperArm_01
          {
            OFFSET 3.43915 0 0
            CHANNELS 6 Xposition Yposition Zposition Zrotation Xrotation Yrotation
            JOINT BN_R__Forearm_01
            {
              OFFSET 10.2529 0 0
              CHANNELS 6 Xposition Yposition Zposition Zrotation Xrotation Yrotation
              JOINT BN_R_Hand_01
              {
                OFFSET 16.2051 0 0
                CHANNELS 6 Xposition Yposition Zposition Zrotation Xrotation Yrotation
                JOINT BN_R_Finger_07
                {
                  OFFSET 2.2539 2.19923 0.192043
                  CHANNELS 6 Xposition Yposition Zposition Zrotation Xrotation Yrotation
                  End Site
                  {
                    OFFSET 0 0 0
                  }
                }
                JOINT BN_R_Finger_01
                {
                  OFFSET 2.17806 -1.99631 -0.219296
                  CHANNELS 6 Xposition Yposition Zposition Zrotation Xrotation Yrotation
                  End Site
                  {
                    OFFSET 0 0 0
                  }
                }
                JOINT BN_R_Finger_05
                {
                  OFFSET 3.30715 1.42802 0.17391
                  CHANNELS 6 Xposition Yposition Zposition Zrotation Xrotation Yrotation
                  End Site
                  {
                    OFFSET 0 0 0
                  }
                }
                JOINT BN_R_Finger_03
                {
                  OFFSET 3.93641 -0.769831 0.580946
                  CHANNELS 6 Xposition Yposition Zposition Zrotation Xrotation Yrotation
                  End Site
                  {
                    OFFSET 0 0 0
                  }
                }
              }
            }
          }
        }
        JOINT BN_L_Clavicle_01
        {
          OFFSET 6.15897 -2.02445 2.78458
          CHANNELS 6 Xposition Yposition Zposition Zrotation Xrotation Yrotation
          JOINT BN_L_UpperArm_01
          {
            OFFSET 3.43915 0 0
            CHANNELS 6 Xposition Yposition Zposition Zrotation Xrotation Yrotation
            JOINT BN_L__Forearm_01
            {
              OFFSET 10.2529 0 0
              CHANNELS 6 Xposition Yposition Zposition Zrotation Xrotation Yrotation
              JOINT BN_L_Hand_01
              {
                OFFSET 16.2051 0 0
                CHANNELS 6 Xposition Yposition Zposition Zrotation Xrotation Yrotation
                JOINT BN_L_Finger_05
                {
                  OFFSET 3.30715 -1.42803 0.173891
                  CHANNELS 6 Xposition Yposition Zposition Zrotation Xrotation Yrotation
                  End Site
                  {
                    OFFSET 0 0 0
                  }
                }
                JOINT BN_L_Finger_07
                {
                  OFFSET 2.2539 -2.19925 0.19203
                  CHANNELS 6 Xposition Yposition Zposition Zrotation Xrotation Yrotation
                  End Site
                  {
                    OFFSET 0 0 0
                  }
                }
                JOINT BN_L_Finger_01
                {
                  OFFSET 2.17804 1.99629 -0.219303
                  CHANNELS 6 Xposition Yposition Zposition Zrotation Xrotation Yrotation
                  End Site
                  {
                    OFFSET 0 0 0
                  }
                }
                JOINT BN_L_Finger_03
                {
                  OFFSET 3.9364 0.769825 0.580943
                  CHANNELS 6 Xposition Yposition Zposition Zrotation Xrotation Yrotation
                  End Site
                  {
                    OFFSET 0 0 0
                  }
                }
              }
            }
          }
        }
        JOINT Bip01_Neck
        {
          OFFSET 7.02381 -0.81237 0
          CHANNELS 6 Xposition Yposition Zposition Zrotation Xrotation Yrotation
          JOINT Bip01_Head
          {
            OFFSET 1.54249 1.14441e-005 0
            CHANNELS 6 Xposition Yposition Zposition Zrotation Xrotation Yrotation
            JOINT BN_Mouth_01
            {
              OFFSET 2.32836 0.166542 0
              CHANNELS 6 Xposition Yposition Zposition Zrotation Xrotation Yrotation
              End Site
              {
                OFFSET 0 0 0
              }
            }
            JOINT BN_R_Ear_01
            {
              OFFSET 3.4208 -0.773972 -2.25959
              CHANNELS 6 Xposition Yposition Zposition Zrotation Xrotation Yrotation
              End Site
              {
                OFFSET 0 0 0
              }
            }
            JOINT BN_L_Ear_01
            {
              OFFSET 3.4208 -0.773976 2.25975
              CHANNELS 6 Xposition Yposition Zposition Zrotation Xrotation Yrotation
              End Site
              {
                OFFSET 0 0 0
              }
            }
            JOINT Bip01_HeadNub
            {
              OFFSET 6.74789 0 0
              CHANNELS 6 Xposition Yposition Zposition Zrotation Xrotation Yrotation
              End Site
              {
                OFFSET 0 0 0
              }
            }
          }
        }
      }
    }
  }
}
MOTION
Frames:	4
Frame Time:	0.0333333
3.61672 51.7284 0.0385345 90 -84.1466 -178.389 0 0 0 -89.9965 -3.50835e-015 -90 -2.28979 -2.39917 3.72529e-009 -101.413 85.4114 -90.0012 9.67405 3.72529e-009 3.8147e-006 6.04776 -0.756293 -6.54062 10.5192 1.11022e-015 -1.14441e-005 11.9515 -2.84699 -18.9549 8.16754 9.53674e-007 -1.42109e-014 13.2564 -3.46865 -24.9848 2.25317 -0.00479889 3.72529e-009 7.59531 -0.00296974 3.86328 -2.06766 0.303175 -2.51935 -22.964 -0.0627168 159.856 9.47902 -1.42109e-014 -1.77636e-015 -9.36182 -6.85242e-007 1.08865e-005 8.42616 0 -1.77636e-015 -21.675 -0.987002 5.02229 1.4015 3.97627 -1.33795 86.6181 -40.8 29.9117 2.94553 0 -3.8147e-006 -18.9819 -2.24873e-006 4.73355e-007 2.52656 -7.10543e-015 1.42109e-014 -9.61102e-006 1.0068e-005 9.97112e-006 2.09729 6.93129 0.0277901 66.1911 2.12157e-006 -1.00052e-005 3.0714 -7.6294e-006 1.90735e-006 -8.98993 -2.25757e-006 1.05681e-005 3.37999 3.8147e-006 5.32907e-015 2.9179e-007 9.90227e-007 -5.3766e-007 -2.38805 0.302655 2.21796 -23.697 4.0026 -168.516 9.47902 -7.10543e-015 1.77636e-015 -25.4262 8.44262e-006 3.41657e-006 8.42617 0 9.53675e-007 -18.343 -13.1788 -4.16219 1.40151 3.97627 1.33796 71.7005 45.8419 -19.6338 2.94554 -3.8147e-006 2.23821e-013 -20.9811 -1.96685e-006 1.11787e-007 2.52656 -3.8147e-006 3.8147e-006 -179.96 -3.02376e-005 1.73297e-005 2.0973 6.93128 -0.0277834 55.1928 1.9547e-006 6.81824e-008 3.07141 -3.8147e-006 3.55271e-015 -20.9882 4.44054e-006 1.24165e-005 3.37999 3.8147e-006 -3.55271e-014 -179.96 -3.83382e-005 4.47087e-005 6.17162 -0.00484467 -5.55112e-016 -11.0601 -0.190271 0.973311 6.15897 -2.02444 -2.78435 -178.034 9.59832 77.6605 3.43915 7.6294e-006 -1.90735e-006 26.4215 48.14 -52.2875 10.2529 3.8147e-006 6.89227e-013 -39.6464 -5.81219 -15.8925 16.2051 9.53675e-007 1.90735e-006 28.8378 0.592423 -40.7722 2.2539 2.19923 0.192043 68.8565 0.544526 -11.5758 2.17806 -1.99631 -0.219295 -71.0641 -0.19216 -8.05397 3.30715 1.42802 0.17391 21.8582 1.069 -15.2919 3.9364 -0.769831 0.580946 -0.526592 0.412164 -35.4015 6.15897 -2.02445 2.78458 1.93808 9.5763 -102.334 3.43915 2.13163e-014 -7.10543e-015 -35.7945 -49.586 -54.123 10.2529 -1.90735e-006 3.8147e-006 46.4856 6.97634 -21.5175 16.2051 -8.75745e-013 5.72205e-006 -26.1264 -5.13868 -39.7677 3.30715 -1.42803 0.173891 -21.8605 -1.04962 -21.2471 2.2539 -2.19925 0.19203 -68.7808 -0.543467 -3.33041 2.17804 1.99629 -0.219303 71.0886 0.181666 -12.9576 3.9364 0.769825 0.580942 0.516461 -2.37141 -42.6269 7.02381 -0.81237 -1.20066e-007 10.998 -2.94275e-008 -2.51998e-008 1.54249 1.14441e-005 -4.10783e-015 -59.0216 4.24222 -3.65155 2.32836 0.166542 -2.48467e-009 -93.5263 -0.0299225 -179.97 3.4208 -0.773972 -2.25959 131.625 2.71324 176.519 3.4208 -0.773976 2.25975 -47.3205 -1.09263 -18.8893 6.74789 -1.90735e-006 8.88179e-016 -9.79006e-006 3.80814e-008 6.56556e-008 
3.72466 51.5931 -0.000982779 90 -84.3127 -177.694 0 0 0 -89.9965 -3.50835e-015 -90 -2.28979 -2.39917 3.72529e-009 -101.361 86.2723 -90.0011 9.67405 3.72529e-009 3.8147e-006 6.14703 -0.521086 -4.02496 10.5192 -4.44089e-016 -1.14441e-005 12.875 -2.91618 -20.1886 8.16754 9.53674e-007 3.55271e-014 14.8303 -3.62939 -26.3367 2.25317 -0.00479889 3.72529e-009 7.13578 -0.00709479 3.70827 -2.07707 0.285583 -2.51384 -22.6721 -0.0149469 159.178 9.47902 -2.13163e-014 -5.32907e-015 -11.4091 1.12466e-006 1.08305e-006 8.42616 1.42109e-014 3.55271e-015 -20.3312 -1.74578 5.82293 1.4015 3.97627 -1.33795 87.9779 -40.194 30.7948 2.94553 -3.55271e-015 -3.8147e-006 -19.7943 -5.34358e-006 8.88917e-006 2.52656 -7.10543e-015 0 -9.611e-006 1.0068e-005 9.97111e-006 2.09729 6.93129 0.0277901 67.3891 2.80073e-006 -9.68382e-006 3.0714 -7.6294e-006 1.90735e-006 -9.78295 -2.41458e-006 1.05289e-005 3.37999 3.8147e-006 3.55272e-015 2.9179e-007 9.90227e-007 -5.3766e-007 -2.38438 0.285058 2.22438 -22.82 4.11314 -168.95 9.47902 0 1.77636e-015 -26.054 4.02317e-006 1.25344e-005 8.42617 -2.13163e-014 9.53675e-007 -17.7034 -13.1381 -3.75402 1.40151 3.97627 1.33796 71.8545 45.8035 -19.7443 2.94554 -3.8147e-006 2.27374e-013 -21.846 -1.76873e-006 -7.46207e-007 2.52656 -3.8147e-006 3.8147e-006 -179.96 -3.02379e-005 1.73298e-005 2.0973 6.93128 -0.0277834 56.3918 2.43793e-006 3.59687e-007 3.07141 -3.8147e-006 7.10543e-015 -21.7819 4.25312e-006 1.23991e-005 3.37999 3.8147e-006 -4.9738e-014 -179.96 -3.83382e-005 4.47087e-005 6.17162 -0.00484467 -3.33067e-016 -12.1622 -0.321371 1.49082 6.15897 -2.02444 -2.78435 -178.034 9.59832 77.6605 3.43915 7.6294e-006 -1.90735e-006 30.0698 50.8331 -47.4408 10.2529 3.8147e-006 6.75016e-013 -37.0631 -6.17111 -15.1095 16.2051 9.53675e-007 1.90735e-006 28.9427 0.651849 -43.3354 2.2539 2.19923 0.192043 68.856 0.542578 -12.1327 2.17806 -1.99631 -0.219296 -71.0484 -0.190267 -7.687 3.30715 1.42802 0.17391 21.834 1.06091 -15.8953 3.9364 -0.769831 0.580946 -0.533903 0.401705 -35.7543 6.15897 -2.02445 2.78458 1.93808 9.5763 -102.334 3.43915 0 -3.55271e-015 -39.9146 -51.8548 -49.518 10.2529 -1.90735e-006 3.8147e-006 43.7948 5.86757 -20.7352 16.2051 -9.43246e-013 5.72205e-006 -26.3251 -5.14975 -41.9208 3.30715 -1.42803 0.173891 -21.8548 -1.04076 -22.7907 2.2539 -2.19925 0.19203 -68.7886 -0.540449 -4.40358 2.17804 1.99629 -0.219303 71.1051 0.179529 -12.744 3.9364 0.769825 0.580942 0.571571 -2.33806 -43.6037 7.02381 -0.81237 -1.20363e-007 10.998 -7.19316e-009 -2.91937e-008 1.54249 1.14441e-005 -4.66294e-015 -59.4067 4.66582 -3.72974 2.32836 0.166542 -2.38141e-009 -94.0297 -0.0293274 -179.97 3.4208 -0.773972 -2.25959 133.727 1.85755 177.276 3.4208 -0.773976 2.25975 -45.2365 -0.459788 -19.6599 6.74789 -1.90735e-006 0 -9.79007e-006 3.80796e-008 1.00835e-005 
3.82173 51.3899 -0.0413722 90 -84.5325 -176.99 0 0 0 -89.9965 -3.50835e-015 -90 -2.28979 -2.39917 3.72529e-009 -101.17 87.2027 -90.0016 9.67405 3.72529e-009 3.8147e-006 6.22246 -0.254374 -1.22173 10.5192 4.44089e-016 -1.14441e-005 13.6285 -2.996 -21.1535 8.16754 9.53674e-007 1.42109e-014 16.1446 -3.89167 -27.2024 2.25317 -0.00479889 3.72529e-009 6.54325 -0.00972475 3.50157 -2.09001 0.260505 -2.50562 -22.2466 0.00461328 158.476 9.47902 7.10543e-015 0 -13.641 1.10718e-006 2.11388e-006 8.42616 7.10543e-015 0 -18.9639 -2.49306 6.69416 1.4015 3.97627 -1.33795 89.7434 -39.3708 31.9245 2.94553 -3.55271e-015 -3.8147e-006 -20.8479 0.0170974 -0.044902 2.52656 7.10543e-015 3.55272e-015 4.06886e-007 1.0068e-005 1.95321e-006 2.09729 6.93129 0.02779 68.9736 2.5716e-006 -9.75283e-006 3.0714 -7.6294e-006 1.90735e-006 -10.7611 0.00324174 -0.0170599 3.37999 3.8147e-006 7.10543e-015 2.9179e-007 9.90227e-007 -5.3766e-007 -2.37852 0.259576 2.23369 -21.7363 4.22327 -169.306 9.47902 7.10543e-015 1.77636e-015 -26.6921 8.19877e-006 4.05093e-006 8.42617 -7.10543e-015 9.53675e-007 -17.1314 -12.9245 -3.34719 1.40151 3.97627 1.33796 72.0099 45.7645 -19.8557 2.94554 -3.8147e-006 0 -22.8673 4.87712e-006 -1.68862e-005 2.52656 -3.8147e-006 3.8147e-006 -179.96 -3.02382e-005 1.733e-005 2.0973 6.93128 -0.0277834 57.9709 2.44899e-006 3.13038e-007 3.07141 -3.8147e-006 7.10543e-015 -22.7815 0.0185596 -0.0441697 3.37999 3.8147e-006 -4.61853e-014 -179.96 -3.83382e-005 4.47087e-005 6.17162 -0.00484467 -3.88578e-016 -13.2855 -0.475461 2.01277 6.15897 -2.02444 -2.78435 -178.034 9.59832 77.6605 3.43915 7.6294e-006 -1.90735e-006 33.449 53.7474 -41.6073 10.2529 3.8147e-006 4.47642e-013 -34.4185 -6.53326 -13.9542 16.2051 9.53675e-007 1.90735e-006 29.0159 0.622812 -45.4177 2.2539 2.19923 0.192043 68.8334 0.53502 -12.0182 2.17806 -1.99631 -0.219296 -71.033 -0.187993 -7.3114 3.30715 1.42802 0.17391 21.8098 1.05308 -16.4972 3.9364 -0.769831 0.580946 -0.541382 0.391327 -36.1005 6.15897 -2.02445 2.78458 1.93808 9.5763 -102.334 3.43915 7.10543e-015 3.55271e-015 -43.5743 -54.2653 -43.7263 10.2529 -1.90735e-006 3.8147e-006 40.6847 4.4757 -19.418 16.2051 -1.04272e-012 5.72205e-006 -26.3467 -5.13051 -43.6188 3.30715 -1.42803 0.173891 -21.8488 -1.03206 -24.3418 2.2539 -2.19925 0.19203 -68.7962 -0.537259 -5.4805 2.17804 1.99629 -0.219303 71.0919 0.181126 -11.8645 3.9364 0.769825 0.580942 0.53766 -2.31364 -43.9335 7.02381 -0.81237 -1.20729e-007 10.998 1.48892e-008 -3.41206e-008 1.54249 1.14441e-005 -4.21885e-015 -59.6959 5.05236 -3.72945 2.32836 0.166542 -2.25776e-009 -94.5381 -0.028717 -179.971 3.4208 -0.773972 -2.25959 135.494 1.24518 177.661 3.4208 -0.773976 2.25975 -43.5322 -0.0952524 -20.0523 6.74789 -1.90735e-006 -4.44089e-016 -9.79006e-006 3.80796e-008 1.00836e-005 
3.90373 51.1355 -0.0804467 90 -84.7888 -176.308 0 0 0 -89.9965 -3.50835e-015 -90 -2.28979 -2.39917 3.72529e-009 -100.867 88.1436 -90.0035 9.67405 3.72529e-009 3.8147e-006 6.24588 0.0212316 1.67303 10.5192 1.33227e-015 -1.14441e-005 14.1863 -3.08033 -21.8099 8.16754 9.53674e-007 7.10543e-015 17.0368 -4.2387 -27.4011 2.25317 -0.00479889 3.72529e-009 5.849 -0.0121927 3.25766 -2.1027 0.235915 -2.49757 -21.7205 0.00233042 157.761 9.47902 -7.10543e-015 3.55271e-015 -15.9107 1.30216e-006 2.17972e-006 8.42616 7.10543e-015 5.32907e-015 -17.6504 -3.2058 7.57033 1.4015 3.97627 -1.33795 91.6984 -38.3983 33.1519 2.94553 0 -3.8147e-006 -22.1211 0.0142225 -0.0349946 2.52656 -7.10543e-015 -1.42109e-014 4.06891e-007 1.0068e-005 1.95321e-006 2.09729 6.93129 0.02779 70.7773 1.42594e-006 -1.01327e-005 3.0714 -7.6294e-006 1.90735e-006 -12.0317 0.00241755 -0.0113457 3.37999 3.8147e-006 7.10543e-015 2.9179e-007 9.90227e-007 -5.3766e-007 -2.37276 0.234593 2.24283 -20.5191 4.35127 -169.672 9.47902 7.10543e-015 8.88179e-016 -27.2975 8.3814e-006 3.76947e-006 8.42617 0 9.53675e-007 -16.6591 -12.566 -2.96345 1.40151 3.97627 1.33796 72.1621 45.726 -19.9647 2.94554 -3.8147e-006 -3.55272e-015 -24.1276 0.000351254 -0.000789712 2.52656 -3.8147e-006 3.8147e-006 -179.96 -3.02386e-005 1.73302e-005 2.0973 6.93128 -0.0277834 59.776 2.01577e-006 1.81357e-008 3.07141 -3.8147e-006 7.10543e-015 -24.0224 0.0160195 -0.0359218 3.37999 3.8147e-006 -3.55271e-014 -179.96 -3.83382e-005 4.47088e-005 6.17162 -0.00484467 -1.66533e-016 -14.3629 -0.643289 2.51054 6.15897 -2.02444 -2.78435 -178.034 9.59832 77.6605 3.43915 7.6294e-006 -1.90735e-006 36.106 56.5756 -34.9338 10.2529 3.8147e-006 4.54748e-013 -31.879 -6.87028 -12.5587 16.2051 9.53675e-007 1.90735e-006 29.013 0.587367 -46.9704 2.2539 2.19923 0.192043 68.8113 0.527589 -11.9059 2.17806 -1.99631 -0.219296 -71.0004 -0.192182 -6.43801 3.30715 1.42802 0.17391 21.8221 1.05381 -16.3446 3.9364 -0.769831 0.580946 -0.537164 0.397275 -35.4334 6.15897 -2.02445 2.78458 1.9381 9.57629 -102.334 3.43915 2.84217e-014 -7.10543e-015 -46.4005 -56.5164 -36.9669 10.2529 -1.90735e-006 3.8147e-006 37.489 2.91017 -17.7335 16.2051 -1.31273e-012 5.72205e-006 -26.298 -5.02194 -44.7785 3.30715 -1.42803 0.173891 -21.845 -1.03223 -25.1019 2.2539 -2.19925 0.19203 -68.785 -0.536473 -5.85907 2.17804 1.99629 -0.219303 71.0788 0.182501 -11.0021 3.9364 0.769825 0.580942 0.545858 -2.31377 -43.687 7.02381 -0.81237 -1.2114e-007 10.998 3.54685e-008 -3.96497e-008 1.54249 1.14441e-005 -2.94209e-015 -59.8718 5.37186 -3.66949 2.32836 0.166542 -2.12899e-009 -95.0365 -0.0281372 -179.971 3.4208 -0.773972 -2.25959 136.104 1.36853 177.037 3.4208 -0.773976 2.25975 -43.0375 -0.55007 -19.4261 6.74789 -1.90735e-006 0 -9.79006e-006 3.80796e-008 1.00836e-005 
